<svg viewBox="0 0 22 22" id="user__subscribe2" xmlns="http://www.w3.org/2000/svg">
<path fill-rule="evenodd" clip-rule="evenodd" d="M8.56749 0C5.3688 0.0514363 2.81494 2.63616 2.81494 5.84902C2.81494 9.09315 5.42061 11.6988 8.66474 11.6988C11.9101 11.6988 14.5145 9.09304 14.5145 5.84902C14.5145 2.63628 11.9619 0.0514375 8.76202 0H8.56749ZM4.46494 5.84902C4.46494 3.51517 6.33176 1.64922 8.66474 1.64922C10.9987 1.64922 12.8645 3.51505 12.8645 5.84902C12.8645 8.182 10.9986 10.0488 8.66474 10.0488C6.33188 10.0488 4.46494 8.18188 4.46494 5.84902Z"/>
<path d="M16.6756 8.71523C16.22 8.71523 15.8506 9.0846 15.8506 9.54023C15.8506 9.99587 16.22 10.3652 16.6756 10.3652H21.1746C21.6302 10.3652 21.9996 9.99587 21.9996 9.54023C21.9996 9.0846 21.6302 8.71523 21.1746 8.71523H16.6756Z"/>
<path fill-rule="evenodd" clip-rule="evenodd" d="M8.6647 13.7004C6.53304 13.7004 4.4612 13.8584 2.89696 14.3828C2.11065 14.6464 1.39132 15.0223 0.861181 15.5726C0.311461 16.1432 0 16.8673 0 17.7253C0 18.5813 0.308724 19.3056 0.855225 19.8783C1.38271 20.4311 2.09941 20.8106 2.88492 21.0777C4.44729 21.6091 6.52003 21.7733 8.6647 21.7733C10.7965 21.7733 12.8683 21.615 14.4325 21.0904C15.2188 20.8267 15.9381 20.4509 16.4682 19.9007C17.0179 19.3301 17.3294 18.6062 17.3294 17.7484C17.3294 16.8924 17.0207 16.1681 16.4742 15.5954C15.9467 15.0426 15.23 14.6631 14.4445 14.3959C12.8821 13.8646 10.8094 13.7004 8.6647 13.7004ZM1.65 17.7253C1.65 17.3029 1.78995 16.9868 2.04949 16.7173C2.3286 16.4276 2.77637 16.1635 3.42144 15.9473C4.71995 15.5119 6.56796 15.3504 8.6647 15.3504C10.7715 15.3504 12.6186 15.5178 13.9132 15.9581C14.5562 16.1767 15.0023 16.443 15.2805 16.7345C15.5396 17.006 15.6794 17.3245 15.6794 17.7484C15.6794 18.1704 15.5395 18.4864 15.2799 18.7558C15.0008 19.0456 14.553 19.3097 13.9079 19.526C12.6094 19.9615 10.7613 20.1233 8.6647 20.1233C6.55787 20.1233 4.71076 19.9559 3.41616 19.5156C2.77318 19.2969 2.32711 19.0307 2.04895 18.7392C1.7898 18.4676 1.65 18.1491 1.65 17.7253Z"/>
</svg>