<svg viewBox="0 0 19 18" id="post__like-inside" xmlns="http://www.w3.org/2000/svg">
<path fill-rule="evenodd" clip-rule="evenodd" d="M4.07125 0.287339C5.91939 -0.307387 7.93843 0.0324563 9.49605 1.2014C11.0542 0.0344094 13.0722 -0.305434 14.9209 0.287339C18.4384 1.42113 19.7041 5.25023 18.6279 8.59593C18.0302 10.3196 17.0498 11.883 15.7617 13.1653C13.9301 14.9455 11.9106 16.5178 9.74019 17.8537L9.50533 18.0002L9.26119 17.8537C7.09029 16.5178 5.07125 14.9455 3.23922 13.1653C1.95162 11.883 0.971149 10.3196 0.373004 8.59593C-0.702679 5.25023 0.553668 1.42113 4.07125 0.287339ZM11.7241 1.71605C12.6044 1.43382 13.5605 1.42699 14.4619 1.71605C16.9668 2.52367 18.0947 5.33128 17.205 8.12035C16.6821 9.62132 15.8281 10.9807 14.7099 12.0959C13.1132 13.6477 11.3681 15.0325 9.50045 16.2327C7.63326 15.0325 5.88814 13.6477 4.29146 12.0959C3.17281 10.9807 2.31929 9.62132 1.79586 8.12035C0.905231 5.3264 2.02877 2.52171 4.53121 1.71507C5.43355 1.42503 6.39009 1.43187 7.27095 1.71507C7.74068 1.86644 8.18892 2.09593 8.59566 2.4016C9.12886 2.80199 9.86226 2.80199 10.3955 2.40257C10.8037 2.09691 11.2529 1.86742 11.7241 1.71605Z"/>
</svg>